<mxfile host="65bd71144e" modified="2020-10-07T10:14:26.976Z" agent="5.0 (X11; Linux x86_64) AppleWebKit/537.36 (KHTML, like Gecko) Code/1.49.3 Chrome/83.0.4103.122 Electron/9.2.1 Safari/537.36" etag="M1db9S-FjW9zASjBd6Od" version="13.6.5" pages="7">
    <diagram id="6hGFLwfOUW9BJ-s0fimq" name="Ghost Server">
        <mxGraphModel dx="1190" dy="718" grid="1" gridSize="10" guides="1" tooltips="1" connect="1" arrows="1" fold="1" page="1" pageScale="1" pageWidth="1169" pageHeight="1654" math="1" shadow="0">
            <root>
                <mxCell id="0"/>
                <mxCell id="1" parent="0"/>
                <mxCell id="Ee4TZIyXvW2JWVN7nGGh-38" value="/frontend" style="shape=module;align=left;spacingLeft=20;align=center;verticalAlign=bottom;" vertex="1" parent="1">
                    <mxGeometry x="822" y="634" width="200" height="520" as="geometry"/>
                </mxCell>
                <mxCell id="Ee4TZIyXvW2JWVN7nGGh-37" value="/server" style="shape=module;align=left;spacingLeft=20;align=center;verticalAlign=bottom;horizontal=1;" vertex="1" parent="1">
                    <mxGeometry x="146" y="634" width="650" height="520" as="geometry"/>
                </mxCell>
                <mxCell id="4" style="edgeStyle=orthogonalEdgeStyle;rounded=0;orthogonalLoop=1;jettySize=auto;html=1;" parent="1" source="2" target="7" edge="1">
                    <mxGeometry relative="1" as="geometry">
                        <mxPoint x="559" y="724.5" as="targetPoint"/>
                    </mxGeometry>
                </mxCell>
                <mxCell id="Ee4TZIyXvW2JWVN7nGGh-39" value="starts" style="edgeLabel;html=1;align=center;verticalAlign=middle;resizable=0;points=[];" vertex="1" connectable="0" parent="4">
                    <mxGeometry x="-0.3071" relative="1" as="geometry">
                        <mxPoint x="7.72" as="offset"/>
                    </mxGeometry>
                </mxCell>
                <mxCell id="20" style="edgeStyle=orthogonalEdgeStyle;rounded=0;orthogonalLoop=1;jettySize=auto;html=1;" parent="1" source="2" target="19" edge="1">
                    <mxGeometry relative="1" as="geometry"/>
                </mxCell>
                <mxCell id="21" value="starts" style="edgeStyle=orthogonalEdgeStyle;rounded=0;orthogonalLoop=1;jettySize=auto;html=1;entryX=0.5;entryY=1;entryDx=0;entryDy=0;" parent="1" source="2" target="11" edge="1">
                    <mxGeometry relative="1" as="geometry"/>
                </mxCell>
                <mxCell id="25" style="edgeStyle=orthogonalEdgeStyle;rounded=0;orthogonalLoop=1;jettySize=auto;html=1;entryX=0;entryY=0.5;entryDx=0;entryDy=0;" parent="1" source="2" target="24" edge="1">
                    <mxGeometry relative="1" as="geometry">
                        <Array as="points">
                            <mxPoint x="523" y="901.5"/>
                        </Array>
                    </mxGeometry>
                </mxCell>
                <mxCell id="27" style="edgeStyle=orthogonalEdgeStyle;rounded=0;orthogonalLoop=1;jettySize=auto;html=1;" parent="1" source="2" target="26" edge="1">
                    <mxGeometry relative="1" as="geometry"/>
                </mxCell>
                <mxCell id="29" value="starts" style="edgeStyle=orthogonalEdgeStyle;rounded=0;orthogonalLoop=1;jettySize=auto;html=1;entryX=1;entryY=0.5;entryDx=0;entryDy=0;" parent="1" source="2" target="28" edge="1">
                    <mxGeometry x="-0.5833" relative="1" as="geometry">
                        <Array as="points">
                            <mxPoint x="389" y="814.5"/>
                            <mxPoint x="389" y="894.5"/>
                        </Array>
                        <mxPoint as="offset"/>
                    </mxGeometry>
                </mxCell>
                <mxCell id="33" style="edgeStyle=orthogonalEdgeStyle;rounded=0;orthogonalLoop=1;jettySize=auto;html=1;entryX=0;entryY=0.5;entryDx=0;entryDy=0;" parent="1" source="2" target="32" edge="1">
                    <mxGeometry relative="1" as="geometry">
                        <Array as="points">
                            <mxPoint x="523" y="981.5"/>
                        </Array>
                    </mxGeometry>
                </mxCell>
                <mxCell id="34" value="starts" style="edgeStyle=orthogonalEdgeStyle;rounded=0;orthogonalLoop=1;jettySize=auto;html=1;entryX=0;entryY=0.5;entryDx=0;entryDy=0;dashed=1;" parent="1" source="2" target="36" edge="1">
                    <mxGeometry x="-0.7888" relative="1" as="geometry">
                        <mxPoint x="749" y="984.5" as="targetPoint"/>
                        <Array as="points">
                            <mxPoint x="523" y="1061.5"/>
                        </Array>
                        <mxPoint as="offset"/>
                    </mxGeometry>
                </mxCell>
                <mxCell id="35" value="optional" style="edgeLabel;html=1;align=center;verticalAlign=middle;resizable=0;points=[];" parent="34" vertex="1" connectable="0">
                    <mxGeometry x="0.4198" y="3" relative="1" as="geometry">
                        <mxPoint x="2" y="-28.240000000000002" as="offset"/>
                    </mxGeometry>
                </mxCell>
                <mxCell id="2" value="Ghost Server" style="rounded=1;whiteSpace=wrap;html=1;shadow=1;comic=0;glass=0;fillColor=#dae8fc;strokeColor=#6c8ebf;" parent="1" vertex="1">
                    <mxGeometry x="489" y="784.5" width="120" height="60" as="geometry"/>
                </mxCell>
                <UserObject label="Frontend" link="data:page/id,UFLmCO15Q9zi7_ftlQIg" id="7">
                    <mxCell style="rounded=1;whiteSpace=wrap;html=1;shadow=1;" parent="1" vertex="1">
                        <mxGeometry x="863" y="784.5" width="120" height="60" as="geometry"/>
                    </mxCell>
                </UserObject>
                <UserObject label="Web App" link="data:page/id,0re-TScnrg3i2gEFAruG" id="11">
                    <mxCell style="rounded=1;whiteSpace=wrap;html=1;shadow=1;" parent="1" vertex="1">
                        <mxGeometry x="489" y="654.5" width="120" height="60" as="geometry"/>
                    </mxCell>
                </UserObject>
                <mxCell id="23" style="edgeStyle=orthogonalEdgeStyle;rounded=0;orthogonalLoop=1;jettySize=auto;html=1;" parent="1" source="17" target="2" edge="1">
                    <mxGeometry relative="1" as="geometry">
                        <Array as="points">
                            <mxPoint x="379" y="981.5"/>
                            <mxPoint x="499" y="981.5"/>
                        </Array>
                    </mxGeometry>
                </mxCell>
                <UserObject label="Database&lt;br&gt;" link="data:page/id,OxO4R8ADJZdM64jq0jgW" id="17">
                    <mxCell style="shape=cylinder;whiteSpace=wrap;html=1;boundedLbl=1;backgroundOutline=1;rounded=1;shadow=1;glass=0;comic=0;fillColor=#d5e8d4;strokeColor=#82b366;" parent="1" vertex="1">
                        <mxGeometry x="349" y="1011.5" width="60" height="80" as="geometry"/>
                    </mxCell>
                </UserObject>
                <mxCell id="19" value="Webhooks" style="rounded=1;whiteSpace=wrap;html=1;shadow=1;glass=0;comic=0;" parent="1" vertex="1">
                    <mxGeometry x="329" y="654.5" width="120" height="60" as="geometry"/>
                </mxCell>
                <object label="XML RPC" something="this is value" asdfasdf="rrrrrrrrrrrrr12" id="24">
                    <mxCell style="rounded=1;whiteSpace=wrap;html=1;shadow=1;glass=0;comic=0;" parent="1" vertex="1">
                        <mxGeometry x="609" y="871.5" width="120" height="60" as="geometry"/>
                    </mxCell>
                </object>
                <mxCell id="26" value="Slack" style="rounded=1;whiteSpace=wrap;html=1;shadow=1;glass=0;comic=0;" parent="1" vertex="1">
                    <mxGeometry x="209" y="784.5" width="120" height="60" as="geometry"/>
                </mxCell>
                <mxCell id="28" value="MEGA" style="rounded=1;whiteSpace=wrap;html=1;shadow=1;glass=0;comic=0;" parent="1" vertex="1">
                    <mxGeometry x="209" y="864.5" width="120" height="60" as="geometry"/>
                </mxCell>
                <mxCell id="31" value="configure" style="edgeStyle=orthogonalEdgeStyle;rounded=0;orthogonalLoop=1;jettySize=auto;html=1;" parent="1" source="30" target="2" edge="1">
                    <mxGeometry x="0.0773" relative="1" as="geometry">
                        <Array as="points">
                            <mxPoint x="239" y="981.5"/>
                            <mxPoint x="499" y="981.5"/>
                        </Array>
                        <mxPoint x="549" y="844.5" as="targetPoint"/>
                        <mxPoint as="offset"/>
                    </mxGeometry>
                </mxCell>
                <mxCell id="30" value="JSON Config" style="shape=cylinder;whiteSpace=wrap;html=1;boundedLbl=1;backgroundOutline=1;rounded=1;shadow=1;glass=0;comic=0;fillColor=#d5e8d4;strokeColor=#82b366;" parent="1" vertex="1">
                    <mxGeometry x="209" y="1011.5" width="60" height="80" as="geometry"/>
                </mxCell>
                <mxCell id="32" value="Scheduler" style="rounded=1;whiteSpace=wrap;html=1;shadow=1;glass=0;comic=0;" parent="1" vertex="1">
                    <mxGeometry x="609" y="951.5" width="120" height="60" as="geometry"/>
                </mxCell>
                <mxCell id="36" value="Analitics" style="rounded=1;whiteSpace=wrap;html=1;shadow=1;glass=0;comic=0;" parent="1" vertex="1">
                    <mxGeometry x="609" y="1031.5" width="120" height="60" as="geometry"/>
                </mxCell>
                <mxCell id="2_TRXo6bR65gcqMLYoBD-38" value="&lt;h1&gt;Ghost Server&amp;nbsp;&lt;/h1&gt;&lt;p&gt;High level view of what is going on behind Ghost process. Configurations it depends on, services it starts etc.&lt;/p&gt;&lt;p&gt;.&lt;/p&gt;" style="text;html=1;strokeColor=none;fillColor=none;spacing=5;spacingTop=-20;whiteSpace=wrap;overflow=hidden;rounded=0;shadow=1;glass=0;comic=0;" parent="1" vertex="1">
                    <mxGeometry x="146" y="501" width="190" height="120" as="geometry"/>
                </mxCell>
            </root>
        </mxGraphModel>
    </diagram>
    <diagram id="0re-TScnrg3i2gEFAruG" name="Web App">
        <mxGraphModel dx="1190" dy="718" grid="1" gridSize="10" guides="1" tooltips="1" connect="1" arrows="1" fold="1" page="1" pageScale="1" pageWidth="1169" pageHeight="1654" background="none" math="0" shadow="0">
            <root>
                <mxCell id="g_Pk5co02SmgUgjOA1Wk-0"/>
                <mxCell id="g_Pk5co02SmgUgjOA1Wk-1" parent="g_Pk5co02SmgUgjOA1Wk-0"/>
                <mxCell id="MKcHbjZ_rWvG3aclOfxX-4" style="edgeStyle=orthogonalEdgeStyle;rounded=0;orthogonalLoop=1;jettySize=auto;html=1;entryX=0.443;entryY=1.022;entryDx=0;entryDy=0;entryPerimeter=0;" parent="g_Pk5co02SmgUgjOA1Wk-1" source="g_Pk5co02SmgUgjOA1Wk-2" target="MKcHbjZ_rWvG3aclOfxX-2" edge="1">
                    <mxGeometry relative="1" as="geometry">
                        <Array as="points">
                            <mxPoint x="530" y="191"/>
                        </Array>
                    </mxGeometry>
                </mxCell>
                <mxCell id="MKcHbjZ_rWvG3aclOfxX-5" style="edgeStyle=orthogonalEdgeStyle;rounded=0;orthogonalLoop=1;jettySize=auto;html=1;entryX=0.5;entryY=1;entryDx=0;entryDy=0;" parent="g_Pk5co02SmgUgjOA1Wk-1" source="g_Pk5co02SmgUgjOA1Wk-2" target="MKcHbjZ_rWvG3aclOfxX-3" edge="1">
                    <mxGeometry relative="1" as="geometry"/>
                </mxCell>
                <mxCell id="MKcHbjZ_rWvG3aclOfxX-15" style="edgeStyle=orthogonalEdgeStyle;rounded=0;orthogonalLoop=1;jettySize=auto;html=1;exitX=0;exitY=0.5;exitDx=0;exitDy=0;entryX=0.5;entryY=1;entryDx=0;entryDy=0;" parent="g_Pk5co02SmgUgjOA1Wk-1" source="g_Pk5co02SmgUgjOA1Wk-2" target="MKcHbjZ_rWvG3aclOfxX-7" edge="1">
                    <mxGeometry relative="1" as="geometry"/>
                </mxCell>
                <mxCell id="g_Pk5co02SmgUgjOA1Wk-2" value="Backend host" style="rounded=1;whiteSpace=wrap;html=1;shadow=1;" parent="g_Pk5co02SmgUgjOA1Wk-1" vertex="1">
                    <mxGeometry x="480" y="240" width="120" height="60" as="geometry"/>
                </mxCell>
                <mxCell id="MKcHbjZ_rWvG3aclOfxX-11" style="edgeStyle=orthogonalEdgeStyle;rounded=0;orthogonalLoop=1;jettySize=auto;html=1;" parent="g_Pk5co02SmgUgjOA1Wk-1" source="g_Pk5co02SmgUgjOA1Wk-3" target="MKcHbjZ_rWvG3aclOfxX-12" edge="1">
                    <mxGeometry relative="1" as="geometry">
                        <mxPoint x="680" y="540" as="targetPoint"/>
                    </mxGeometry>
                </mxCell>
                <mxCell id="MKcHbjZ_rWvG3aclOfxX-14" style="edgeStyle=orthogonalEdgeStyle;rounded=0;orthogonalLoop=1;jettySize=auto;html=1;entryX=0.5;entryY=1;entryDx=0;entryDy=0;" parent="g_Pk5co02SmgUgjOA1Wk-1" source="g_Pk5co02SmgUgjOA1Wk-3" target="MKcHbjZ_rWvG3aclOfxX-13" edge="1">
                    <mxGeometry relative="1" as="geometry"/>
                </mxCell>
                <mxCell id="g_Pk5co02SmgUgjOA1Wk-3" value="Frontend host" style="rounded=1;whiteSpace=wrap;html=1;shadow=1;" parent="g_Pk5co02SmgUgjOA1Wk-1" vertex="1">
                    <mxGeometry x="480" y="510" width="120" height="60" as="geometry"/>
                </mxCell>
                <mxCell id="MKcHbjZ_rWvG3aclOfxX-2" value="API" style="rounded=1;whiteSpace=wrap;html=1;shadow=1;glass=0;comic=0;" parent="g_Pk5co02SmgUgjOA1Wk-1" vertex="1">
                    <mxGeometry x="480" y="140" width="120" height="60" as="geometry"/>
                </mxCell>
                <mxCell id="MKcHbjZ_rWvG3aclOfxX-3" value="/.well-known" style="rounded=1;whiteSpace=wrap;html=1;shadow=1;glass=0;comic=0;" parent="g_Pk5co02SmgUgjOA1Wk-1" vertex="1">
                    <mxGeometry x="640" y="140" width="120" height="60" as="geometry"/>
                </mxCell>
                <mxCell id="MKcHbjZ_rWvG3aclOfxX-7" value="Session" style="rounded=1;whiteSpace=wrap;html=1;shadow=1;glass=0;comic=0;" parent="g_Pk5co02SmgUgjOA1Wk-1" vertex="1">
                    <mxGeometry x="320" y="140" width="120" height="60" as="geometry"/>
                </mxCell>
                <mxCell id="MKcHbjZ_rWvG3aclOfxX-12" value="Memebers" style="rounded=1;whiteSpace=wrap;html=1;" parent="g_Pk5co02SmgUgjOA1Wk-1" vertex="1">
                    <mxGeometry x="320" y="440" width="120" height="60" as="geometry"/>
                </mxCell>
                <mxCell id="MKcHbjZ_rWvG3aclOfxX-13" value="Site" style="rounded=1;whiteSpace=wrap;html=1;shadow=1;glass=0;comic=0;" parent="g_Pk5co02SmgUgjOA1Wk-1" vertex="1">
                    <mxGeometry x="640" y="440" width="120" height="60" as="geometry"/>
                </mxCell>
                <mxCell id="MKcHbjZ_rWvG3aclOfxX-16" value="&lt;h1&gt;Web App&lt;/h1&gt;&lt;p&gt;Set of express apps and middlewares hosting backend and frontend endpoints.&lt;/p&gt;" style="text;html=1;strokeColor=none;fillColor=none;spacing=5;spacingTop=-20;whiteSpace=wrap;overflow=hidden;rounded=0;shadow=1;glass=0;comic=0;" parent="g_Pk5co02SmgUgjOA1Wk-1" vertex="1">
                    <mxGeometry x="90" y="40" width="190" height="120" as="geometry"/>
                </mxCell>
            </root>
        </mxGraphModel>
    </diagram>
    <diagram id="UFLmCO15Q9zi7_ftlQIg" name="Frontend">
        <mxGraphModel dx="1190" dy="718" grid="0" gridSize="10" guides="1" tooltips="1" connect="1" arrows="1" fold="1" page="1" pageScale="1" pageWidth="1169" pageHeight="1654" math="0" shadow="0">
            <root>
                <mxCell id="-2ogQ-mcpYfprKZNykps-0"/>
                <mxCell id="-2ogQ-mcpYfprKZNykps-1" parent="-2ogQ-mcpYfprKZNykps-0"/>
                <UserObject label="Frontend" id="aiain1LydSn6yQZjgKEf-1">
                    <mxCell style="shape=module;align=left;spacingLeft=20;align=center;verticalAlign=top;" parent="-2ogQ-mcpYfprKZNykps-1" vertex="1">
                        <mxGeometry x="92" y="79" width="780" height="635" as="geometry"/>
                    </mxCell>
                </UserObject>
                <mxCell id="tUIy4McTz6vlUWnCyGM8-0" value="Apps (legacy)" style="rounded=1;whiteSpace=wrap;html=1;shadow=1;glass=0;comic=0;fillColor=#f5f5f5;strokeColor=#666666;fontColor=#333333;" parent="-2ogQ-mcpYfprKZNykps-1" vertex="1">
                    <mxGeometry x="130" y="630" width="120" height="60" as="geometry"/>
                </mxCell>
                <mxCell id="tUIy4McTz6vlUWnCyGM8-1" value="Theme Helpers" style="rounded=1;whiteSpace=wrap;html=1;shadow=1;glass=0;comic=0;" parent="-2ogQ-mcpYfprKZNykps-1" vertex="1">
                    <mxGeometry x="320" y="429" width="120" height="60" as="geometry"/>
                </mxCell>
                <mxCell id="tUIy4McTz6vlUWnCyGM8-2" value="Meta Data" style="rounded=1;whiteSpace=wrap;html=1;shadow=1;glass=0;comic=0;" parent="-2ogQ-mcpYfprKZNykps-1" vertex="1">
                    <mxGeometry x="320" y="328" width="120" height="60" as="geometry"/>
                </mxCell>
                <mxCell id="0vkX5XUgLVxQ25lSlyxC-1" style="edgeStyle=none;rounded=0;orthogonalLoop=1;jettySize=auto;html=1;endArrow=blockThin;endFill=1;strokeColor=#000000;" parent="-2ogQ-mcpYfprKZNykps-1" source="tUIy4McTz6vlUWnCyGM8-3" target="tUIy4McTz6vlUWnCyGM8-5" edge="1">
                    <mxGeometry relative="1" as="geometry"/>
                </mxCell>
                <UserObject label="Routing" link="data:page/id,C_X4WGgB-nsR-dm9dDzN" id="tUIy4McTz6vlUWnCyGM8-3">
                    <mxCell style="rounded=1;whiteSpace=wrap;html=1;shadow=1;glass=0;comic=0;" parent="-2ogQ-mcpYfprKZNykps-1" vertex="1">
                        <mxGeometry x="320" y="228" width="120" height="60" as="geometry"/>
                    </mxCell>
                </UserObject>
                <mxCell id="tUIy4McTz6vlUWnCyGM8-4" value="RSS" style="rounded=1;whiteSpace=wrap;html=1;shadow=1;glass=0;comic=0;" parent="-2ogQ-mcpYfprKZNykps-1" vertex="1">
                    <mxGeometry x="320" y="529" width="120" height="60" as="geometry"/>
                </mxCell>
                <mxCell id="0vkX5XUgLVxQ25lSlyxC-0" style="orthogonalLoop=1;jettySize=auto;html=1;endArrow=blockThin;endFill=1;rounded=0;strokeColor=#000000;" parent="-2ogQ-mcpYfprKZNykps-1" source="tUIy4McTz6vlUWnCyGM8-5" target="tUIy4McTz6vlUWnCyGM8-3" edge="1">
                    <mxGeometry relative="1" as="geometry"/>
                </mxCell>
                <mxCell id="tUIy4McTz6vlUWnCyGM8-5" value="URL Services" style="rounded=1;whiteSpace=wrap;html=1;shadow=1;glass=0;comic=0;" parent="-2ogQ-mcpYfprKZNykps-1" vertex="1">
                    <mxGeometry x="320" y="127" width="120" height="60" as="geometry"/>
                </mxCell>
                <mxCell id="BLvhViQUQS_d1v95HY8_-0" value="Sitemaps" style="rounded=1;whiteSpace=wrap;html=1;shadow=1;glass=0;comic=0;" parent="-2ogQ-mcpYfprKZNykps-1" vertex="1">
                    <mxGeometry x="320" y="630" width="120" height="60" as="geometry"/>
                </mxCell>
            </root>
        </mxGraphModel>
    </diagram>
    <diagram id="C_X4WGgB-nsR-dm9dDzN" name="Frontend.Routing">
        <mxGraphModel dx="1983" dy="1197" grid="0" gridSize="10" guides="1" tooltips="1" connect="1" arrows="1" fold="1" page="1" pageScale="1" pageWidth="1654" pageHeight="2336" math="0" shadow="0">
            <root>
                <mxCell id="RekACJvsXuy1EvEqW2vo-0"/>
                <mxCell id="RekACJvsXuy1EvEqW2vo-1" parent="RekACJvsXuy1EvEqW2vo-0"/>
                <mxCell id="1wqZQeD_Wqx-TBvpCGZq-1" value="Frongend.Routing" style="shape=module;align=left;spacingLeft=20;align=center;verticalAlign=top;fontStyle=1" parent="RekACJvsXuy1EvEqW2vo-1" vertex="1">
                    <mxGeometry x="260" y="537" width="1270" height="1053" as="geometry"/>
                </mxCell>
                <mxCell id="WQ7NFyPyE_2X4FJk83Yj-10" value="Controllers" style="shape=module;align=left;spacingLeft=20;align=center;verticalAlign=top;dashed=1;fontStyle=1" parent="RekACJvsXuy1EvEqW2vo-1" vertex="1">
                    <mxGeometry x="1140" y="563.5" width="340" height="1000" as="geometry"/>
                </mxCell>
                <mxCell id="WQ7NFyPyE_2X4FJk83Yj-1" value="channel" style="rounded=1;whiteSpace=wrap;html=1;fontStyle=1" parent="RekACJvsXuy1EvEqW2vo-1" vertex="1">
                    <mxGeometry x="1180" y="1300" width="260" height="110" as="geometry"/>
                </mxCell>
                <mxCell id="WQ7NFyPyE_2X4FJk83Yj-2" value="collection" style="rounded=1;whiteSpace=wrap;html=1;fontStyle=1" parent="RekACJvsXuy1EvEqW2vo-1" vertex="1">
                    <mxGeometry x="1180" y="1020" width="260" height="110" as="geometry"/>
                </mxCell>
                <mxCell id="WQ7NFyPyE_2X4FJk83Yj-3" value="entry" style="rounded=1;whiteSpace=wrap;html=1;fontStyle=1" parent="RekACJvsXuy1EvEqW2vo-1" vertex="1">
                    <mxGeometry x="1180" y="1160" width="260" height="110" as="geometry"/>
                </mxCell>
                <mxCell id="WQ7NFyPyE_2X4FJk83Yj-4" value="preview" style="rounded=1;whiteSpace=wrap;html=1;fontStyle=1" parent="RekACJvsXuy1EvEqW2vo-1" vertex="1">
                    <mxGeometry x="1180" y="740" width="260" height="110" as="geometry"/>
                </mxCell>
                <mxCell id="WQ7NFyPyE_2X4FJk83Yj-5" value="static" style="rounded=1;whiteSpace=wrap;html=1;fontStyle=1" parent="RekACJvsXuy1EvEqW2vo-1" vertex="1">
                    <mxGeometry x="1180" y="880" width="260" height="110" as="geometry"/>
                </mxCell>
                <mxCell id="WQ7NFyPyE_2X4FJk83Yj-6" value="rss&lt;span style=&quot;font-weight: normal&quot;&gt;&lt;br&gt;&lt;/span&gt;" style="rounded=1;whiteSpace=wrap;html=1;fontStyle=1" parent="RekACJvsXuy1EvEqW2vo-1" vertex="1">
                    <mxGeometry x="1180" y="1430" width="260" height="110" as="geometry"/>
                </mxCell>
                <mxCell id="WQ7NFyPyE_2X4FJk83Yj-7" value="unsubscribe" style="rounded=1;whiteSpace=wrap;html=1;fontStyle=1" parent="RekACJvsXuy1EvEqW2vo-1" vertex="1">
                    <mxGeometry x="1180" y="600" width="260" height="110" as="geometry"/>
                </mxCell>
                <mxCell id="WQ7NFyPyE_2X4FJk83Yj-11" value="Routers &#10;          EventEmmiter classes with instances of Express Routers" style="shape=module;align=right;spacingLeft=20;align=center;verticalAlign=top;dashed=1;fontStyle=1" parent="RekACJvsXuy1EvEqW2vo-1" vertex="1">
                    <mxGeometry x="300" y="563.5" width="640" height="1000" as="geometry"/>
                </mxCell>
                <mxCell id="WQ7NFyPyE_2X4FJk83Yj-13" style="edgeStyle=orthogonalEdgeStyle;rounded=0;orthogonalLoop=1;jettySize=auto;html=1;entryX=0;entryY=0.5;entryDx=0;entryDy=0;endArrow=blockThin;endFill=1;curved=1;" parent="RekACJvsXuy1EvEqW2vo-1" source="WQ7NFyPyE_2X4FJk83Yj-12" target="WQ7NFyPyE_2X4FJk83Yj-3" edge="1">
                    <mxGeometry relative="1" as="geometry"/>
                </mxCell>
                <mxCell id="tBC1Q4bOPodAJbTdn5lm-6" style="edgeStyle=orthogonalEdgeStyle;curved=1;rounded=0;orthogonalLoop=1;jettySize=auto;html=1;entryX=0;entryY=0.5;entryDx=0;entryDy=0;exitX=0;exitY=0.5;exitDx=0;exitDy=0;" parent="RekACJvsXuy1EvEqW2vo-1" source="WQ7NFyPyE_2X4FJk83Yj-12" target="qBjRENf8I2q7FmzrQZSH-5" edge="1">
                    <mxGeometry relative="1" as="geometry">
                        <mxPoint x="240" y="1360" as="targetPoint"/>
                        <Array as="points">
                            <mxPoint x="290" y="1215"/>
                            <mxPoint x="290" y="1355"/>
                        </Array>
                    </mxGeometry>
                </mxCell>
                <mxCell id="tBC1Q4bOPodAJbTdn5lm-11" style="edgeStyle=orthogonalEdgeStyle;curved=1;rounded=0;orthogonalLoop=1;jettySize=auto;html=1;dashed=1;entryX=0.75;entryY=1;entryDx=0;entryDy=0;" parent="RekACJvsXuy1EvEqW2vo-1" source="WQ7NFyPyE_2X4FJk83Yj-12" target="tBC1Q4bOPodAJbTdn5lm-7" edge="1">
                    <mxGeometry relative="1" as="geometry">
                        <mxPoint x="860" y="380" as="targetPoint"/>
                    </mxGeometry>
                </mxCell>
                <mxCell id="WQ7NFyPyE_2X4FJk83Yj-12" value="Static Pages" style="rounded=1;whiteSpace=wrap;html=1;fontStyle=1" parent="RekACJvsXuy1EvEqW2vo-1" vertex="1">
                    <mxGeometry x="340" y="1160" width="260" height="110" as="geometry"/>
                </mxCell>
                <mxCell id="WQ7NFyPyE_2X4FJk83Yj-18" style="edgeStyle=orthogonalEdgeStyle;rounded=0;orthogonalLoop=1;jettySize=auto;html=1;exitX=1;exitY=0.5;exitDx=0;exitDy=0;entryX=0;entryY=0.5;entryDx=0;entryDy=0;endArrow=blockThin;endFill=1;" parent="RekACJvsXuy1EvEqW2vo-1" source="WQ7NFyPyE_2X4FJk83Yj-14" target="WQ7NFyPyE_2X4FJk83Yj-5" edge="1">
                    <mxGeometry relative="1" as="geometry"/>
                </mxCell>
                <mxCell id="qBjRENf8I2q7FmzrQZSH-39" style="edgeStyle=orthogonalEdgeStyle;curved=1;rounded=0;orthogonalLoop=1;jettySize=auto;html=1;entryX=0.5;entryY=0;entryDx=0;entryDy=0;endArrow=block;endFill=1;strokeColor=#000000;" parent="RekACJvsXuy1EvEqW2vo-1" source="WQ7NFyPyE_2X4FJk83Yj-14" target="qBjRENf8I2q7FmzrQZSH-2" edge="1">
                    <mxGeometry relative="1" as="geometry"/>
                </mxCell>
                <mxCell id="tBC1Q4bOPodAJbTdn5lm-12" style="edgeStyle=orthogonalEdgeStyle;curved=1;rounded=0;orthogonalLoop=1;jettySize=auto;html=1;entryX=0;entryY=1;entryDx=0;entryDy=0;dashed=1;" parent="RekACJvsXuy1EvEqW2vo-1" source="WQ7NFyPyE_2X4FJk83Yj-14" target="tBC1Q4bOPodAJbTdn5lm-8" edge="1">
                    <mxGeometry relative="1" as="geometry"/>
                </mxCell>
                <mxCell id="WQ7NFyPyE_2X4FJk83Yj-14" value="Static Routes&lt;br&gt;&lt;hr&gt;&lt;span style=&quot;font-weight: normal&quot;&gt;Mounts routes based on routes.yaml&amp;nbsp;&lt;/span&gt;routes &lt;span style=&quot;font-weight: normal&quot;&gt;configuration&lt;/span&gt;" style="rounded=1;whiteSpace=wrap;html=1;fontStyle=1" parent="RekACJvsXuy1EvEqW2vo-1" vertex="1">
                    <mxGeometry x="340" y="880" width="260" height="110" as="geometry"/>
                </mxCell>
                <mxCell id="qBjRENf8I2q7FmzrQZSH-1" style="edgeStyle=none;rounded=0;orthogonalLoop=1;jettySize=auto;html=1;endArrow=blockThin;endFill=1;strokeColor=#000000;" parent="RekACJvsXuy1EvEqW2vo-1" source="qBjRENf8I2q7FmzrQZSH-0" target="WQ7NFyPyE_2X4FJk83Yj-4" edge="1">
                    <mxGeometry relative="1" as="geometry"/>
                </mxCell>
                <mxCell id="qBjRENf8I2q7FmzrQZSH-0" value="Preview&lt;br class=&quot;Apple-interchange-newline&quot;&gt;&lt;hr&gt;&lt;span style=&quot;font-weight: normal&quot;&gt;handles&amp;nbsp;&lt;/span&gt;/p/:uuid/&lt;span style=&quot;font-weight: normal&quot;&gt;&amp;nbsp;routes for post previews&lt;/span&gt;" style="rounded=1;whiteSpace=wrap;html=1;fontStyle=1" parent="RekACJvsXuy1EvEqW2vo-1" vertex="1">
                    <mxGeometry x="340" y="740" width="260" height="110" as="geometry"/>
                </mxCell>
                <mxCell id="qBjRENf8I2q7FmzrQZSH-37" style="rounded=0;orthogonalLoop=1;jettySize=auto;html=1;endArrow=blockThin;endFill=1;strokeColor=#000000;" parent="RekACJvsXuy1EvEqW2vo-1" source="qBjRENf8I2q7FmzrQZSH-2" target="WQ7NFyPyE_2X4FJk83Yj-6" edge="1">
                    <mxGeometry relative="1" as="geometry"/>
                </mxCell>
                <mxCell id="qBjRENf8I2q7FmzrQZSH-2" value="RSS&lt;br class=&quot;Apple-interchange-newline&quot;&gt;&lt;hr&gt;&lt;span style=&quot;font-weight: normal&quot;&gt;handles&amp;nbsp;&lt;/span&gt;/rss/&lt;span style=&quot;font-weight: normal&quot;&gt;&amp;nbsp;routes assigned to collections/taxonomies/static routes&lt;br&gt;&lt;/span&gt;" style="rounded=1;whiteSpace=wrap;html=1;fontStyle=1" parent="RekACJvsXuy1EvEqW2vo-1" vertex="1">
                    <mxGeometry x="650" y="1430" width="260" height="110" as="geometry"/>
                </mxCell>
                <mxCell id="qBjRENf8I2q7FmzrQZSH-40" style="edgeStyle=orthogonalEdgeStyle;curved=1;rounded=0;orthogonalLoop=1;jettySize=auto;html=1;endArrow=block;endFill=1;strokeColor=#000000;" parent="RekACJvsXuy1EvEqW2vo-1" source="qBjRENf8I2q7FmzrQZSH-5" target="qBjRENf8I2q7FmzrQZSH-2" edge="1">
                    <mxGeometry relative="1" as="geometry"/>
                </mxCell>
                <mxCell id="tBC1Q4bOPodAJbTdn5lm-13" style="edgeStyle=orthogonalEdgeStyle;curved=1;rounded=0;orthogonalLoop=1;jettySize=auto;html=1;dashed=1;entryX=0;entryY=1;entryDx=0;entryDy=0;" parent="RekACJvsXuy1EvEqW2vo-1" source="qBjRENf8I2q7FmzrQZSH-5" target="tBC1Q4bOPodAJbTdn5lm-8" edge="1">
                    <mxGeometry relative="1" as="geometry">
                        <mxPoint x="860" y="380" as="targetPoint"/>
                    </mxGeometry>
                </mxCell>
                <mxCell id="qBjRENf8I2q7FmzrQZSH-5" value="Taxonomy&lt;br class=&quot;Apple-interchange-newline&quot;&gt;&lt;hr&gt;&lt;span style=&quot;font-weight: normal&quot;&gt;Mounts routes based on routes.yaml&amp;nbsp;&lt;/span&gt;taxonomies&amp;nbsp;&lt;span style=&quot;font-weight: normal&quot;&gt;configuration&lt;/span&gt;" style="rounded=1;whiteSpace=wrap;html=1;fontStyle=1" parent="RekACJvsXuy1EvEqW2vo-1" vertex="1">
                    <mxGeometry x="340" y="1300" width="260" height="110" as="geometry"/>
                </mxCell>
                <mxCell id="qBjRENf8I2q7FmzrQZSH-7" style="edgeStyle=none;rounded=0;orthogonalLoop=1;jettySize=auto;html=1;endArrow=blockThin;endFill=1;strokeColor=#000000;" parent="RekACJvsXuy1EvEqW2vo-1" source="qBjRENf8I2q7FmzrQZSH-6" target="WQ7NFyPyE_2X4FJk83Yj-7" edge="1">
                    <mxGeometry relative="1" as="geometry"/>
                </mxCell>
                <mxCell id="qBjRENf8I2q7FmzrQZSH-38" style="edgeStyle=orthogonalEdgeStyle;rounded=0;orthogonalLoop=1;jettySize=auto;html=1;entryX=0.5;entryY=0;entryDx=0;entryDy=0;endArrow=block;endFill=1;strokeColor=#000000;curved=1;" parent="RekACJvsXuy1EvEqW2vo-1" source="qBjRENf8I2q7FmzrQZSH-8" target="qBjRENf8I2q7FmzrQZSH-2" edge="1">
                    <mxGeometry relative="1" as="geometry"/>
                </mxCell>
                <mxCell id="qBjRENf8I2q7FmzrQZSH-8" value="Collection&lt;br class=&quot;Apple-interchange-newline&quot;&gt;&lt;hr&gt;&lt;span style=&quot;font-weight: normal&quot;&gt;Mounts routes based on routes.yaml&amp;nbsp;&lt;/span&gt;collections&amp;nbsp;&lt;span style=&quot;font-weight: normal&quot;&gt;configuration&lt;/span&gt;" style="rounded=1;whiteSpace=wrap;html=1;fontStyle=1" parent="RekACJvsXuy1EvEqW2vo-1" vertex="1">
                    <mxGeometry x="340" y="1020" width="260" height="110" as="geometry"/>
                </mxCell>
                <mxCell id="qBjRENf8I2q7FmzrQZSH-17" value="&lt;b&gt;&lt;font style=&quot;font-size: 21px&quot;&gt;Complete legend&lt;/font&gt;&lt;/b&gt;" style="shape=note;whiteSpace=wrap;html=1;size=14;verticalAlign=top;align=left;spacingTop=-6;dashed=1;" parent="RekACJvsXuy1EvEqW2vo-1" vertex="1">
                    <mxGeometry x="30" y="537" width="200" height="433" as="geometry"/>
                </mxCell>
                <mxCell id="qBjRENf8I2q7FmzrQZSH-23" style="edgeStyle=orthogonalEdgeStyle;curved=1;rounded=0;orthogonalLoop=1;jettySize=auto;html=1;entryX=0;entryY=0.5;entryDx=0;entryDy=0;endArrow=blockThin;endFill=1;strokeColor=#000000;exitX=0;exitY=0.5;exitDx=0;exitDy=0;" parent="RekACJvsXuy1EvEqW2vo-1" source="qBjRENf8I2q7FmzrQZSH-0" target="WQ7NFyPyE_2X4FJk83Yj-14" edge="1">
                    <mxGeometry relative="1" as="geometry">
                        <Array as="points">
                            <mxPoint x="290" y="795"/>
                            <mxPoint x="290" y="935"/>
                        </Array>
                    </mxGeometry>
                </mxCell>
                <mxCell id="qBjRENf8I2q7FmzrQZSH-24" style="edgeStyle=orthogonalEdgeStyle;curved=1;rounded=0;orthogonalLoop=1;jettySize=auto;html=1;entryX=0;entryY=0.5;entryDx=0;entryDy=0;endArrow=blockThin;endFill=1;strokeColor=#000000;exitX=0;exitY=0.5;exitDx=0;exitDy=0;" parent="RekACJvsXuy1EvEqW2vo-1" source="qBjRENf8I2q7FmzrQZSH-8" target="WQ7NFyPyE_2X4FJk83Yj-12" edge="1">
                    <mxGeometry relative="1" as="geometry">
                        <Array as="points">
                            <mxPoint x="290" y="1075"/>
                            <mxPoint x="290" y="1215"/>
                        </Array>
                    </mxGeometry>
                </mxCell>
                <mxCell id="qBjRENf8I2q7FmzrQZSH-25" style="edgeStyle=orthogonalEdgeStyle;curved=1;rounded=0;orthogonalLoop=1;jettySize=auto;html=1;entryX=0;entryY=0.5;entryDx=0;entryDy=0;endArrow=blockThin;endFill=1;strokeColor=#000000;exitX=0;exitY=0.5;exitDx=0;exitDy=0;" parent="RekACJvsXuy1EvEqW2vo-1" source="WQ7NFyPyE_2X4FJk83Yj-14" target="qBjRENf8I2q7FmzrQZSH-8" edge="1">
                    <mxGeometry relative="1" as="geometry">
                        <Array as="points">
                            <mxPoint x="290" y="935"/>
                            <mxPoint x="290" y="1075"/>
                        </Array>
                    </mxGeometry>
                </mxCell>
                <mxCell id="qBjRENf8I2q7FmzrQZSH-27" style="edgeStyle=orthogonalEdgeStyle;curved=1;rounded=0;orthogonalLoop=1;jettySize=auto;html=1;entryX=0;entryY=0.5;entryDx=0;entryDy=0;endArrow=blockThin;endFill=1;strokeColor=#000000;exitX=0;exitY=0.5;exitDx=0;exitDy=0;" parent="RekACJvsXuy1EvEqW2vo-1" source="qBjRENf8I2q7FmzrQZSH-6" target="qBjRENf8I2q7FmzrQZSH-0" edge="1">
                    <mxGeometry relative="1" as="geometry">
                        <Array as="points">
                            <mxPoint x="290" y="655"/>
                            <mxPoint x="290" y="795"/>
                        </Array>
                    </mxGeometry>
                </mxCell>
                <mxCell id="qBjRENf8I2q7FmzrQZSH-32" style="edgeStyle=orthogonalEdgeStyle;curved=1;rounded=0;orthogonalLoop=1;jettySize=auto;html=1;entryX=0;entryY=0.5;entryDx=0;entryDy=0;endArrow=blockThin;endFill=1;strokeColor=#000000;exitX=0;exitY=0.5;exitDx=0;exitDy=0;" parent="RekACJvsXuy1EvEqW2vo-1" source="qBjRENf8I2q7FmzrQZSH-5" target="qBjRENf8I2q7FmzrQZSH-31" edge="1">
                    <mxGeometry relative="1" as="geometry">
                        <Array as="points">
                            <mxPoint x="290" y="1355"/>
                            <mxPoint x="290" y="1485"/>
                        </Array>
                    </mxGeometry>
                </mxCell>
                <mxCell id="tBC1Q4bOPodAJbTdn5lm-5" value="&lt;font style=&quot;font-size: 16px&quot;&gt;initializes routers one by one&lt;/font&gt;" style="edgeStyle=orthogonalEdgeStyle;curved=1;rounded=0;orthogonalLoop=1;jettySize=auto;html=1;" parent="RekACJvsXuy1EvEqW2vo-1" source="qBjRENf8I2q7FmzrQZSH-18" target="qBjRENf8I2q7FmzrQZSH-6" edge="1">
                    <mxGeometry x="-0.4545" relative="1" as="geometry">
                        <mxPoint as="offset"/>
                    </mxGeometry>
                </mxCell>
                <mxCell id="qBjRENf8I2q7FmzrQZSH-18" value="Bootstrap&lt;br&gt;&lt;hr&gt;&lt;span style=&quot;font-weight: normal&quot;&gt;initialize + starts all routes&lt;/span&gt;" style="rounded=1;whiteSpace=wrap;html=1;fontStyle=1" parent="RekACJvsXuy1EvEqW2vo-1" vertex="1">
                    <mxGeometry x="340" y="380" width="260" height="110" as="geometry"/>
                </mxCell>
                <mxCell id="qBjRENf8I2q7FmzrQZSH-6" value="Unsubscribe&lt;br class=&quot;Apple-interchange-newline&quot;&gt;&lt;hr&gt;&lt;span style=&quot;font-weight: normal&quot;&gt;handles static&amp;nbsp;&lt;/span&gt;/unsubscribe/&lt;span style=&quot;font-weight: normal&quot;&gt;&amp;nbsp; route for members&lt;/span&gt;" style="rounded=1;whiteSpace=wrap;html=1;fontStyle=1" parent="RekACJvsXuy1EvEqW2vo-1" vertex="1">
                    <mxGeometry x="340" y="600" width="260" height="110" as="geometry"/>
                </mxCell>
                <mxCell id="qBjRENf8I2q7FmzrQZSH-31" value="Apps (legacy)" style="rounded=1;whiteSpace=wrap;html=1;fontStyle=1;fillColor=#f5f5f5;strokeColor=#666666;fontColor=#333333;" parent="RekACJvsXuy1EvEqW2vo-1" vertex="1">
                    <mxGeometry x="340" y="1430" width="260" height="110" as="geometry"/>
                </mxCell>
                <UserObject label="URL Services" link="data:page/id,YOJvxgon9z65qMP7UQmv" id="tBC1Q4bOPodAJbTdn5lm-7">
                    <mxCell style="rounded=1;whiteSpace=wrap;html=1;" parent="RekACJvsXuy1EvEqW2vo-1" vertex="1">
                        <mxGeometry x="670" y="240" width="203" height="110" as="geometry"/>
                    </mxCell>
                </UserObject>
                <mxCell id="tBC1Q4bOPodAJbTdn5lm-8" value="Sitemap" style="rounded=1;whiteSpace=wrap;html=1;" parent="RekACJvsXuy1EvEqW2vo-1" vertex="1">
                    <mxGeometry x="823" y="240" width="210" height="110" as="geometry"/>
                </mxCell>
                <UserObject label="&lt;font style=&quot;font-size: 16px&quot;&gt;emits '&lt;b&gt;router.created&lt;/b&gt;' event&lt;br&gt;when finished initializing&lt;br&gt;&lt;/font&gt;" id="tBC1Q4bOPodAJbTdn5lm-9">
                    <mxCell style="edgeStyle=orthogonalEdgeStyle;curved=1;rounded=0;orthogonalLoop=1;jettySize=auto;html=1;entryX=0.75;entryY=1;entryDx=0;entryDy=0;dashed=1;exitX=1;exitY=0.5;exitDx=0;exitDy=0;" parent="RekACJvsXuy1EvEqW2vo-1" source="qBjRENf8I2q7FmzrQZSH-8" target="tBC1Q4bOPodAJbTdn5lm-7" edge="1">
                        <mxGeometry x="0.8963" y="-11" relative="1" as="geometry">
                            <mxPoint y="1" as="offset"/>
                        </mxGeometry>
                    </mxCell>
                </UserObject>
                <mxCell id="cnSx0iLZZQ_Tj-q_MjWv-0" value="" style="endArrow=none;dashed=1;html=1;" parent="RekACJvsXuy1EvEqW2vo-1" edge="1">
                    <mxGeometry width="50" height="50" relative="1" as="geometry">
                        <mxPoint x="40" y="635" as="sourcePoint"/>
                        <mxPoint x="90" y="585" as="targetPoint"/>
                    </mxGeometry>
                </mxCell>
                <mxCell id="cnSx0iLZZQ_Tj-q_MjWv-1" value="&lt;font style=&quot;font-size: 16px&quot;&gt;- component&lt;br&gt;&lt;/font&gt;" style="text;html=1;strokeColor=none;fillColor=none;align=center;verticalAlign=middle;whiteSpace=wrap;rounded=0;" parent="RekACJvsXuy1EvEqW2vo-1" vertex="1">
                    <mxGeometry x="100" y="650" width="130" height="20" as="geometry"/>
                </mxCell>
                <mxCell id="cnSx0iLZZQ_Tj-q_MjWv-2" value="" style="rounded=1;whiteSpace=wrap;html=1;" parent="RekACJvsXuy1EvEqW2vo-1" vertex="1">
                    <mxGeometry x="40" y="650" width="50" height="30" as="geometry"/>
                </mxCell>
                <mxCell id="cnSx0iLZZQ_Tj-q_MjWv-3" value="&lt;font style=&quot;font-size: 16px&quot;&gt;- emited event&lt;/font&gt;" style="text;html=1;strokeColor=none;fillColor=none;align=center;verticalAlign=middle;whiteSpace=wrap;rounded=0;" parent="RekACJvsXuy1EvEqW2vo-1" vertex="1">
                    <mxGeometry x="100" y="590" width="130" height="20" as="geometry"/>
                </mxCell>
                <mxCell id="cnSx0iLZZQ_Tj-q_MjWv-4" value="" style="endArrow=classic;html=1;entryX=0.4;entryY=0.423;entryDx=0;entryDy=0;entryPerimeter=0;" parent="RekACJvsXuy1EvEqW2vo-1" target="qBjRENf8I2q7FmzrQZSH-17" edge="1">
                    <mxGeometry width="50" height="50" relative="1" as="geometry">
                        <mxPoint x="50" y="720" as="sourcePoint"/>
                        <mxPoint x="50" y="700" as="targetPoint"/>
                        <Array as="points">
                            <mxPoint x="80" y="720"/>
                        </Array>
                    </mxGeometry>
                </mxCell>
                <mxCell id="cnSx0iLZZQ_Tj-q_MjWv-5" value="&lt;font style=&quot;font-size: 16px&quot;&gt;- instanciates&lt;br&gt;&lt;/font&gt;" style="text;html=1;strokeColor=none;fillColor=none;align=center;verticalAlign=middle;whiteSpace=wrap;rounded=0;" parent="RekACJvsXuy1EvEqW2vo-1" vertex="1">
                    <mxGeometry x="100" y="710" width="130" height="20" as="geometry"/>
                </mxCell>
                <mxCell id="cnSx0iLZZQ_Tj-q_MjWv-6" value="&lt;h1&gt;Frontend routing component&lt;/h1&gt;&lt;p&gt;Describe ins and outs in one paragrap here!.&lt;/p&gt;" style="text;html=1;strokeColor=none;fillColor=none;spacing=5;spacingTop=-20;whiteSpace=wrap;overflow=hidden;rounded=0;align=right;" parent="RekACJvsXuy1EvEqW2vo-1" vertex="1">
                    <mxGeometry x="30" y="51" width="381" height="120" as="geometry"/>
                </mxCell>
            </root>
        </mxGraphModel>
    </diagram>
    <diagram id="YOJvxgon9z65qMP7UQmv" name="Frontend.URLServices">
        &#xa;
        <mxGraphModel dx="1448" dy="918" grid="1" gridSize="10" guides="1" tooltips="1" connect="1" arrows="1" fold="1" page="1" pageScale="1" pageWidth="1654" pageHeight="2336" math="0" shadow="0">
            &#xa;
            <root>
                &#xa;
                <mxCell id="NBr4smxvO_jZqGxVLhJU-0"/>
                &#xa;
                <mxCell id="NBr4smxvO_jZqGxVLhJU-1" parent="NBr4smxvO_jZqGxVLhJU-0"/>
                &#xa;
                <mxCell id="IhWRhrdp51GuF3P_AUua-5" value="Frontend.URLServices&#10;" style="shape=module;align=left;spacingLeft=20;align=center;verticalAlign=top;" vertex="1" parent="NBr4smxvO_jZqGxVLhJU-1">
                    &#xa;
                    <mxGeometry x="330" y="50" width="900" height="620" as="geometry"/>
                    &#xa;
                </mxCell>
                &#xa;
                <mxCell id="IhWRhrdp51GuF3P_AUua-0" value="(API) Resources" style="shape=cylinder;whiteSpace=wrap;html=1;boundedLbl=1;backgroundOutline=1;" vertex="1" parent="NBr4smxvO_jZqGxVLhJU-1">
                    &#xa;
                    <mxGeometry x="540" y="250" width="90" height="180" as="geometry"/>
                    &#xa;
                </mxCell>
                &#xa;
                <mxCell id="c-RhR1-xSah1XEcXvLbJ-0" style="edgeStyle=orthogonalEdgeStyle;curved=1;rounded=0;orthogonalLoop=1;jettySize=auto;html=1;dashed=1;" edge="1" parent="NBr4smxvO_jZqGxVLhJU-1" source="IhWRhrdp51GuF3P_AUua-1" target="IhWRhrdp51GuF3P_AUua-4">
                    &#xa;
                    <mxGeometry relative="1" as="geometry"/>
                    &#xa;
                </mxCell>
                &#xa;
                <mxCell id="c-RhR1-xSah1XEcXvLbJ-1" value="Adds URLs to" style="edgeLabel;html=1;align=center;verticalAlign=middle;resizable=0;points=[];" vertex="1" connectable="0" parent="c-RhR1-xSah1XEcXvLbJ-0">
                    &#xa;
                    <mxGeometry x="-0.1516" y="-21" relative="1" as="geometry">
                        &#xa;
                        <mxPoint as="offset"/>
                        &#xa;
                    </mxGeometry>
                    &#xa;
                </mxCell>
                &#xa;
                <mxCell id="IhWRhrdp51GuF3P_AUua-1" value="URL Generator" style="rounded=1;whiteSpace=wrap;html=1;" vertex="1" parent="NBr4smxvO_jZqGxVLhJU-1">
                    &#xa;
                    <mxGeometry x="750" y="250" width="120" height="60" as="geometry"/>
                    &#xa;
                </mxCell>
                &#xa;
                <mxCell id="IhWRhrdp51GuF3P_AUua-3" value="populates" style="edgeStyle=orthogonalEdgeStyle;curved=1;rounded=0;orthogonalLoop=1;jettySize=auto;html=1;entryX=1;entryY=0.833;entryDx=0;entryDy=0;entryPerimeter=0;dashed=1;" edge="1" parent="NBr4smxvO_jZqGxVLhJU-1" source="IhWRhrdp51GuF3P_AUua-2" target="IhWRhrdp51GuF3P_AUua-0">
                    &#xa;
                    <mxGeometry relative="1" as="geometry"/>
                    &#xa;
                </mxCell>
                &#xa;
                <mxCell id="IhWRhrdp51GuF3P_AUua-2" value="URL Service" style="rounded=1;whiteSpace=wrap;html=1;" vertex="1" parent="NBr4smxvO_jZqGxVLhJU-1">
                    &#xa;
                    <mxGeometry x="750" y="370" width="120" height="60" as="geometry"/>
                    &#xa;
                </mxCell>
                &#xa;
                <mxCell id="IhWRhrdp51GuF3P_AUua-4" value="URLs" style="rounded=1;whiteSpace=wrap;html=1;" vertex="1" parent="NBr4smxvO_jZqGxVLhJU-1">
                    &#xa;
                    <mxGeometry x="920" y="370" width="120" height="60" as="geometry"/>
                    &#xa;
                </mxCell>
                &#xa;
                <mxCell id="IhWRhrdp51GuF3P_AUua-6" value="" style="endArrow=classic;html=1;dashed=1;entryX=0.5;entryY=1;entryDx=0;entryDy=0;" edge="1" parent="NBr4smxvO_jZqGxVLhJU-1" target="IhWRhrdp51GuF3P_AUua-2">
                    &#xa;
                    <mxGeometry width="50" height="50" relative="1" as="geometry">
                        &#xa;
                        <mxPoint x="810" y="750" as="sourcePoint"/>
                        &#xa;
                        <mxPoint x="740" y="420" as="targetPoint"/>
                        &#xa;
                    </mxGeometry>
                    &#xa;
                </mxCell>
                &#xa;
                <mxCell id="e_wlB-JSkLcLn3C9t5Zs-0" value="&lt;span style=&quot;line-height: 100%&quot;&gt;&lt;font style=&quot;font-size: 14px&quot;&gt;emits 'router.created' event&lt;/font&gt;&lt;/span&gt;&lt;span style=&quot;font-size: 20px&quot;&gt;&lt;br&gt;&lt;/span&gt;" style="edgeLabel;html=1;align=center;verticalAlign=middle;resizable=0;points=[];" vertex="1" connectable="0" parent="IhWRhrdp51GuF3P_AUua-6">
                    &#xa;
                    <mxGeometry x="-0.5288" y="-3" relative="1" as="geometry">
                        &#xa;
                        <mxPoint x="-3" y="45" as="offset"/>
                        &#xa;
                    </mxGeometry>
                    &#xa;
                </mxCell>
                &#xa;
                <UserObject label="Frontend.Routing" link="data:page/id,C_X4WGgB-nsR-dm9dDzN" id="IhWRhrdp51GuF3P_AUua-7">
                    &#xa;
                    <mxCell style="shape=module;align=left;spacingLeft=20;align=center;verticalAlign=top;" vertex="1" parent="NBr4smxvO_jZqGxVLhJU-1">
                        &#xa;
                        <mxGeometry x="720" y="750" width="182" height="70" as="geometry"/>
                        &#xa;
                    </mxCell>
                    &#xa;
                </UserObject>
                &#xa;
            </root>
            &#xa;
        </mxGraphModel>
        &#xa;
    </diagram>
    <diagram id="ES0HiWzcd9qUHCjdIbyD" name="Frontend.Sitemap">
        &#xa;
        <mxGraphModel dx="1231" dy="780" grid="1" gridSize="10" guides="1" tooltips="1" connect="1" arrows="1" fold="1" page="1" pageScale="1" pageWidth="1654" pageHeight="2336" math="0" shadow="0">
            &#xa;
            <root>
                &#xa;
                <mxCell id="vH5alpcxzZVGYlUf3r8a-0"/>
                &#xa;
                <mxCell id="vH5alpcxzZVGYlUf3r8a-1" parent="vH5alpcxzZVGYlUf3r8a-0"/>
                &#xa;
            </root>
            &#xa;
        </mxGraphModel>
        &#xa;
    </diagram>
    <diagram id="OxO4R8ADJZdM64jq0jgW" name="DB Schema">
        &#xa;
        <mxGraphModel dx="1190" dy="718" grid="1" gridSize="10" guides="1" tooltips="1" connect="1" arrows="1" fold="1" page="1" pageScale="1" pageWidth="1169" pageHeight="1654" math="0" shadow="0">
            &#xa;
            <root>
                &#xa;
                <mxCell id="jiV_aFNH-dCE75jdKbzh-0"/>
                &#xa;
                <mxCell id="jiV_aFNH-dCE75jdKbzh-1" parent="jiV_aFNH-dCE75jdKbzh-0"/>
                &#xa;
                <mxCell id="bbJmEMgzMB4xrOlxyJMR-0" value="Post" style="swimlane;fontStyle=0;childLayout=stackLayout;horizontal=1;startSize=26;horizontalStack=0;resizeParent=1;resizeParentMax=0;resizeLast=0;collapsible=1;marginBottom=0;align=center;fontSize=14;rounded=1;shadow=1;glass=0;comic=0;" parent="jiV_aFNH-dCE75jdKbzh-1" vertex="1">
                    &#xa;
                    <mxGeometry x="330" y="420" width="160" height="104" as="geometry"/>
                    &#xa;
                </mxCell>
                &#xa;
                <mxCell id="bbJmEMgzMB4xrOlxyJMR-1" value="id&#10;" style="text;strokeColor=none;fillColor=none;spacingLeft=4;spacingRight=4;overflow=hidden;rotatable=0;points=[[0,0.5],[1,0.5]];portConstraint=eastwest;fontSize=12;" parent="bbJmEMgzMB4xrOlxyJMR-0" vertex="1">
                    &#xa;
                    <mxGeometry y="26" width="160" height="26" as="geometry"/>
                    &#xa;
                </mxCell>
                &#xa;
                <mxCell id="bbJmEMgzMB4xrOlxyJMR-2" value="title" style="text;strokeColor=none;fillColor=none;spacingLeft=4;spacingRight=4;overflow=hidden;rotatable=0;points=[[0,0.5],[1,0.5]];portConstraint=eastwest;fontSize=12;" parent="bbJmEMgzMB4xrOlxyJMR-0" vertex="1">
                    &#xa;
                    <mxGeometry y="52" width="160" height="26" as="geometry"/>
                    &#xa;
                </mxCell>
                &#xa;
                <mxCell id="bbJmEMgzMB4xrOlxyJMR-3" value="mobiledoc" style="text;strokeColor=none;fillColor=none;spacingLeft=4;spacingRight=4;overflow=hidden;rotatable=0;points=[[0,0.5],[1,0.5]];portConstraint=eastwest;fontSize=12;" parent="bbJmEMgzMB4xrOlxyJMR-0" vertex="1">
                    &#xa;
                    <mxGeometry y="78" width="160" height="26" as="geometry"/>
                    &#xa;
                </mxCell>
                &#xa;
            </root>
            &#xa;
        </mxGraphModel>
        &#xa;
    </diagram>
</mxfile>